<svg width="20" height="20" viewBox="0 0 20 20" xmlns="http://www.w3.org/2000/svg" xmlns:xlink="http://www.w3.org/1999/xlink"><title>ic-edit</title><desc>Created using Figma</desc><use xlink:href="#a" fill="#339BE6"/><defs><path id="a" d="M19.5 20H.5c-.3 0-.5-.2-.5-.5s.2-.5.5-.5h19c.3 0 .5.2.5.5s-.2.5-.5.5zm-.8-15.3l-12 12c-.1.1-.3.2-.5.3l-4 1H2c-.3 0-.5-.1-.7-.3-.3-.3-.3-.6-.3-1l1-4c0-.2.1-.3.3-.5l12-12c.2-.1.4-.2.7-.2.3 0 .5.1.7.3l3 3c.4.4.4 1 0 1.4zM18 4l-3-3-1.7 1.7 2 2c.2.2.2.5 0 .7-.1.1-.2.2-.3.2-.1 0-.3 0-.3-.2l-2-2L3 13l-1 4 4-1L18 4z"/></defs></svg>