<svg width="20" height="12" viewBox="0 0 20 12" xmlns="http://www.w3.org/2000/svg" xmlns:xlink="http://www.w3.org/1999/xlink"><title>ic-show</title><desc>Created using Figma</desc><use xlink:href="#a" fill="#339BE6"/><defs><path id="a" d="M10 0C4.5 0 0 5.2 0 6.5c0 1 2 3.3 4.5 4.8.1 0 .2.1.3.1.2 0 .3-.1.4-.2.1-.2.1-.5-.2-.7-2.5-1.6-4-3.6-4-4 .1-.6 2.1-3.1 5-4.5-.6.8-1 1.9-1 3 0 2.8 2.2 5 5 5s5-2.2 5-5c0-1.1-.4-2.2-1-3 2.9 1.4 4.9 3.9 5 4.5 0 .3.2.5.5.5s.5-.2.5-.5C20 5.2 15.5 0 10 0zm4 5c0 2.2-1.8 4-4 4S6 7.2 6 5s1.8-4 4-4 4 1.8 4 4z"/></defs></svg>