<svg width="29" height="19" viewBox="0 0 29 19" xmlns="http://www.w3.org/2000/svg" xmlns:xlink="http://www.w3.org/1999/xlink"><title>ic-google</title><desc>Created using Figma</desc><use xlink:href="#a" transform="translate(.11 .99)" fill="#B5C8E0"/><use xlink:href="#b" transform="translate(21.09 6.12)" fill="#B5C8E0"/><defs><path id="a" d="M.024 8.555C.104 3.92 4.447-.14 9.17.007c2.263-.102 4.388.862 6.12 2.222a32.381 32.381 0 0 1-2.321 2.37c-2.079-1.417-5.047-1.814-7.137-.182-2.979 2.03-3.117 6.803-.254 8.98 2.783 2.482 8.06 1.246 8.834-2.552H9.17c0-1.02-.012-2.097 0-3.129a753.11 753.11 0 0 1 8.764.012c.173 2.403-.15 4.965-1.651 6.96-2.287 3.152-6.86 4.07-10.427 2.721C2.264 16.06-.276 12.342.024 8.555z"/><path id="b" d="M2.644 0h2.61c0 .85-.011 1.735 0 2.585.866.011 1.767-.012 2.633 0v2.562c-.866.011-1.755-.011-2.633 0-.011.862 0 1.734 0 2.596h-2.61c-.011-.85.012-1.734 0-2.596-.866-.011-1.766.011-2.644 0V2.585c.866-.012 1.767 0 2.644 0 0-.862-.011-1.735 0-2.585z"/></defs></svg>