<svg width="25" height="24" viewBox="0 0 25 24" xmlns="http://www.w3.org/2000/svg" xmlns:xlink="http://www.w3.org/1999/xlink"><title>ic-linkedin</title><desc>Created using Figma</desc><use xlink:href="#a" fill="#B5C8E0"/><use xlink:href="#b" transform="translate(.42 7.9)" fill="#B5C8E0"/><use xlink:href="#c" transform="translate(8.59 7.49)" fill="#B5C8E0"/><defs><path id="a" d="M2.933 0c1.594 0 2.898 1.292 2.898 2.857 0 1.644-1.397 2.88-2.921 2.845C1.363 5.736 0 4.467 0 2.857 0 1.28 1.316 0 2.933 0z"/><path id="b" d="M4.203 15.849H.797A.791.791 0 0 1 0 15.067V.782C0 .352.358 0 .797 0h3.406C4.642 0 5 .351 5 .782v14.285c0 .43-.358.782-.797.782z"/><path id="c" d="M15.658 5.419c0-2.993-2.47-5.419-5.52-5.419h-.877c-1.663 0-3.14.816-4.03 2.063a5.195 5.195 0 0 0-.266.42c-.023 0-.046-.012-.046 0V.726a.332.332 0 0 0-.335-.33H.334A.332.332 0 0 0 0 .727v15.202c0 .182.15.329.335.329h4.342a.332.332 0 0 0 .335-.329V7.142c0-1.519 1.235-2.777 2.782-2.8a2.862 2.862 0 0 1 2.021.805c.508.499.82 1.19.82 1.95v8.82c0 .181.15.329.335.329h4.353a.332.332 0 0 0 .335-.33V5.42z"/></defs></svg>