<svg width="26" height="21" viewBox="0 0 26 21" xmlns="http://www.w3.org/2000/svg" xmlns:xlink="http://www.w3.org/1999/xlink"><title>ic-twitter</title><desc>Created using Figma</desc><use xlink:href="#a" transform="translate(.61 .42)" fill="#B5C8E0"/><defs><path id="a" d="M25.393 2.415c-.936.408-1.94.68-2.991.805A5.129 5.129 0 0 0 24.688.374a10.404 10.404 0 0 1-3.314 1.247A5.24 5.24 0 0 0 17.575 0c-2.875 0-5.208 2.301-5.208 5.136 0 .408.046.793.139 1.167A14.856 14.856 0 0 1 1.766.941a5.05 5.05 0 0 0-.704 2.585c0 1.78.924 3.355 2.321 4.274a5.138 5.138 0 0 1-2.355-.646v.068c0 2.494 1.801 4.568 4.18 5.033-.439.113-.9.181-1.374.181-.335 0-.658-.034-.982-.09.658 2.04 2.587 3.525 4.873 3.57a10.512 10.512 0 0 1-6.478 2.2c-.416 0-.831-.022-1.247-.068a14.878 14.878 0 0 0 7.99 2.313c9.585 0 14.828-7.834 14.828-14.613 0-.227 0-.442-.012-.67a10.803 10.803 0 0 0 2.587-2.663z"/></defs></svg>