<svg width="1280" height="51" viewBox="0 0 1280 51" xmlns="http://www.w3.org/2000/svg" xmlns:xlink="http://www.w3.org/1999/xlink"><title>Group</title><desc>Created using Figma</desc><use xlink:href="#a" fill="url(#b)" opacity=".1"/><g transform="translate(-7129 -721)"><mask id="d"><use xlink:href="#a" transform="translate(7129 721)" fill="url(#c)" fill-opacity=".2"/></mask><g mask="url(#d)"><use xlink:href="#e" transform="translate(7119 714)" fill="url(#f)"/></g></g><use xlink:href="#g" transform="translate(0 50)" fill="url(#h)" opacity=".2"/><defs><linearGradient id="b" x2="1" gradientUnits="userSpaceOnUse" gradientTransform="matrix(0 50 -1280 0 1280 0)"><stop offset="0" stop-color="#F2C94C" stop-opacity=".77"/><stop offset=".972" stop-color="#F2994A"/></linearGradient><linearGradient id="c" x2="1" gradientUnits="userSpaceOnUse" gradientTransform="matrix(0 50 -1280 0 1280 0)"><stop offset="0" stop-color="#F2C94C" stop-opacity="0"/><stop offset=".972" stop-color="#F2994A"/></linearGradient><linearGradient id="f" x2="1" gradientUnits="userSpaceOnUse" gradientTransform="matrix(.99999 -67 1332.92 19.894 -55.958 57.053)"><stop offset=".028" stop-color="#FBCB90"/><stop offset="1" stop-color="#F2C94C" stop-opacity="0"/></linearGradient><linearGradient id="h" x2="1" gradientUnits="userSpaceOnUse" gradientTransform="matrix(0 1 -1280 0 1280 0)"><stop offset="0" stop-color="#F2994A"/><stop offset=".972" stop-color="#F2994A"/></linearGradient><path id="a" d="M0 0h1280v50H0V0z"/><path id="e" fill-rule="evenodd" d="M35 0l10.392 6-35 60.622-10.392-6L35 0zm40 0l10.392 6-35 60.622-10.392-6L75 0zm50.392 6L115 0 80 60.622l10.392 6 35-60.622zM155 0l10.392 6-35 60.622-10.392-6L155 0zm50.392 6L195 0l-35 60.622 10.392 6 35-60.622zM235 0l10.392 6-35 60.622-10.392-6L235 0zm50.392 6L275 0l-35 60.622 10.392 6 35-60.622zM315 0l10.392 6-35 60.622-10.392-6L315 0zm50.392 6L355 0l-35 60.622 10.392 6 35-60.622zM395 0l10.392 6-35 60.622-10.392-6L395 0zm50.392 6L435 0l-35 60.622 10.392 6 35-60.622zM475 0l10.392 6-35 60.622-10.392-6L475 0zm50.392 6L515 0l-35 60.622 10.392 6 35-60.622zM555 0l10.392 6-35 60.622-10.392-6L555 0zm50.392 6L595 0l-35 60.622 10.392 6 35-60.622zM635 0l10.392 6-35 60.622-10.392-6L635 0zm50.392 6L675 0l-35 60.622 10.392 6 35-60.622zM715 0l10.392 6-35 60.622-10.392-6L715 0zm50.392 6L755 0l-35 60.622 10.392 6 35-60.622zM795 0l10.392 6-35 60.622-10.392-6L795 0zm50.392 6L835 0l-35 60.622 10.392 6 35-60.622zM875 0l10.392 6-35 60.622-10.392-6L875 0zm50.392 6L915 0l-35 60.622 10.392 6 35-60.622zM955 0l10.392 6-35 60.622-10.392-6L955 0zm50.39 6L995 0l-35 60.622 10.392 6L1005.39 6zM1035 0l10.39 6-35 60.622-10.39-6L1035 0zm50.39 6L1075 0l-35 60.622 10.39 6 35-60.622zM1115 0l10.39 6-35 60.622-10.39-6L1115 0zm50.39 6L1155 0l-35 60.622 10.39 6 35-60.622zM1195 0l10.39 6-35 60.622-10.39-6L1195 0zm50.39 6L1235 0l-35 60.622 10.39 6 35-60.622zM1275 0l10.39 6-35 60.622-10.39-6L1275 0zm50.39 6L1315 0l-35 60.622 10.39 6 35-60.622z"/><path id="g" d="M0 0h1280v1H0V0z"/></defs></svg>