<svg width="145" height="17" viewBox="0 0 145 17" xmlns="http://www.w3.org/2000/svg" xmlns:xlink="http://www.w3.org/1999/xlink"><title>logo-wallet-monero</title><desc>Created using Figma</desc><g transform="translate(0 -5)"><use xlink:href="#a" fill="#339BE6"/><use xlink:href="#b" fill="#FFF"/></g><use xlink:href="#c" transform="translate(0 2)" fill="#339BE6"/><defs><path id="a" d="M72.97 6.98c.332 0 .62.12.86.36.252.227.38.513.38.86v11.58c0 .347-.114.64-.34.88-.228.227-.528.34-.9.34-.374 0-.68-.113-.92-.34-.228-.227-.34-.52-.34-.88v-8.06l-3.3 5.04c-.134.16-.288.293-.46.4a.973.973 0 0 1-.54.12.932.932 0 0 1-.52-.12 1.876 1.876 0 0 1-.46-.4l-3.3-5.22v8.24c0 .36-.108.653-.32.88-.214.227-.494.34-.84.34-.334 0-.608-.113-.82-.34a1.277 1.277 0 0 1-.32-.88V8.2c0-.333.12-.62.36-.86a1.264 1.264 0 0 1 1.5-.2c.2.093.352.22.46.38l4.36 6.7 4.48-6.7c.106-.16.246-.287.42-.38a1.12 1.12 0 0 1 .56-.16zM90.095 14c0 1.32-.294 2.533-.88 3.64a6.733 6.733 0 0 1-2.44 2.6c-1.027.64-2.187.96-3.48.96-1.294 0-2.46-.32-3.5-.96a6.784 6.784 0 0 1-2.42-2.6c-.574-1.107-.86-2.32-.86-3.64 0-1.32.286-2.527.86-3.62a6.747 6.747 0 0 1 2.42-2.62c1.04-.64 2.206-.96 3.5-.96 1.293 0 2.453.32 3.48.96a6.696 6.696 0 0 1 2.44 2.62c.587 1.093.88 2.3.88 3.62zm-2.6 0c0-.893-.18-1.7-.54-2.42a4.343 4.343 0 0 0-1.5-1.74 3.807 3.807 0 0 0-2.16-.64c-.814 0-1.54.213-2.18.64-.627.413-1.12.987-1.48 1.72-.347.733-.52 1.547-.52 2.44s.173 1.707.52 2.44c.36.733.853 1.313 1.48 1.74.64.413 1.367.62 2.18.62.8 0 1.52-.213 2.16-.64.64-.427 1.14-1 1.5-1.72.36-.733.54-1.547.54-2.44zm15.516-7c.32 0 .58.107.78.32.2.213.3.48.3.8v11.66c0 .347-.12.64-.36.88-.227.227-.514.34-.86.34-.187 0-.374-.027-.56-.08a.83.83 0 0 1-.38-.26l-7.34-9.32v8.54c0 .32-.107.587-.32.8-.2.213-.467.32-.8.32-.32 0-.58-.107-.78-.32-.2-.213-.3-.48-.3-.8V8.22c0-.347.113-.633.34-.86.24-.24.533-.36.88-.36.2 0 .393.04.58.12.2.08.346.187.44.32l7.28 9.28v-8.6c0-.32.1-.587.3-.8.213-.213.48-.32.8-.32zm12.007 11.7c.346 0 .633.12.86.36.24.227.36.493.36.8 0 .333-.12.607-.36.82-.227.213-.514.32-.86.32h-6.7c-.347 0-.64-.113-.88-.34a1.232 1.232 0 0 1-.34-.88V8.22c0-.347.113-.633.34-.86.24-.24.533-.36.88-.36h6.7c.346 0 .633.113.86.34.24.213.36.493.36.84 0 .333-.114.607-.34.82-.227.2-.52.3-.88.3h-5.42v3.4h4.52c.346 0 .633.113.86.34.24.213.36.493.36.84 0 .333-.114.607-.34.82-.227.2-.52.3-.88.3h-4.52v3.7h5.42zm14.505.34c.173.107.307.247.4.42.107.173.16.353.16.54 0 .24-.08.46-.24.66-.2.24-.507.36-.92.36-.32 0-.613-.073-.88-.22-.96-.547-1.44-1.66-1.44-3.34 0-.48-.16-.86-.48-1.14-.307-.28-.753-.42-1.34-.42h-3.74v3.88c0 .36-.1.653-.3.88-.187.227-.44.34-.76.34a1.62 1.62 0 0 1-1.02-.34c-.28-.24-.42-.533-.42-.88V8.22c0-.347.113-.633.34-.86.24-.24.533-.36.88-.36h5.76c.693 0 1.347.187 1.96.56a4.06 4.06 0 0 1 1.46 1.54c.373.653.56 1.387.56 2.2 0 .667-.18 1.32-.54 1.96a4.331 4.331 0 0 1-1.4 1.5c.84.587 1.3 1.373 1.38 2.36.04.213.06.42.06.62.053.413.107.713.16.9a.658.658 0 0 0 .36.4zm-4.1-5.2c.24 0 .473-.113.7-.34.227-.227.413-.527.56-.9.147-.387.22-.8.22-1.24a2.33 2.33 0 0 0-.22-1.02 2.093 2.093 0 0 0-.56-.76c-.227-.187-.46-.28-.7-.28h-4.38v4.54h4.38zm19.535.16c0 1.32-.293 2.533-.88 3.64a6.736 6.736 0 0 1-2.44 2.6c-1.027.64-2.187.96-3.48.96-1.293 0-2.46-.32-3.5-.96a6.784 6.784 0 0 1-2.42-2.6c-.573-1.107-.86-2.32-.86-3.64 0-1.32.287-2.527.86-3.62.587-1.107 1.393-1.98 2.42-2.62 1.04-.64 2.207-.96 3.5-.96 1.293 0 2.453.32 3.48.96a6.7 6.7 0 0 1 2.44 2.62c.587 1.093.88 2.3.88 3.62zm-2.6 0c0-.893-.18-1.7-.54-2.42a4.343 4.343 0 0 0-1.5-1.74 3.807 3.807 0 0 0-2.16-.64c-.813 0-1.54.213-2.18.64-.627.413-1.12.987-1.48 1.72-.347.733-.52 1.547-.52 2.44s.173 1.707.52 2.44c.36.733.853 1.313 1.48 1.74.64.413 1.367.62 2.18.62.8 0 1.52-.213 2.16-.64.64-.427 1.14-1 1.5-1.72.36-.733.54-1.547.54-2.44z"/><path id="b" d="M14.343 9.891c.266 0 .49.098.672.294a.93.93 0 0 1 .294.714c0 .098-.028.231-.084.399l-3.213 9.072a.939.939 0 0 1-.42.504.99.99 0 0 1-.63.126c-.378-.028-.665-.238-.861-.63l-2.184-5.712-2.016 5.712c-.084.196-.203.35-.357.462A1.08 1.08 0 0 1 5.04 21c-.21.028-.42-.014-.63-.126a.94.94 0 0 1-.399-.504L.756 11.298a1.253 1.253 0 0 1-.063-.399c0-.28.091-.518.273-.714a.93.93 0 0 1 .714-.294c.476 0 .784.21.924.63l2.499 7.077 1.995-5.229c.168-.42.476-.63.924-.63.42 0 .707.21.861.63l2.037 5.145 2.457-6.993c.154-.42.476-.63.966-.63zm12.13-.042a.93.93 0 0 1 .715.294c.196.182.294.427.294.735v9.114c0 .28-.098.518-.294.714a.93.93 0 0 1-.714.294c-.294 0-.532-.091-.714-.273a1.039 1.039 0 0 1-.273-.735v-.546c-.364.49-.861.91-1.491 1.26a4.263 4.263 0 0 1-2.037.504c-.952 0-1.82-.245-2.604-.735-.77-.49-1.38-1.169-1.827-2.037-.434-.882-.651-1.869-.651-2.961 0-1.092.217-2.072.65-2.94.449-.882 1.058-1.568 1.828-2.058a4.638 4.638 0 0 1 2.54-.735c.743 0 1.429.154 2.059.462.644.308 1.155.7 1.533 1.176v-.504c0-.294.09-.539.273-.735a.93.93 0 0 1 .714-.294zm-4.283 9.513c.658 0 1.239-.168 1.743-.504a3.306 3.306 0 0 0 1.197-1.386c.294-.588.44-1.253.44-1.995 0-.728-.146-1.386-.44-1.974a3.306 3.306 0 0 0-1.197-1.386c-.504-.35-1.085-.525-1.743-.525a3.17 3.17 0 0 0-1.764.504 3.513 3.513 0 0 0-1.197 1.386c-.28.588-.42 1.253-.42 1.995 0 .742.14 1.407.42 1.995.294.588.693 1.05 1.197 1.386a3.17 3.17 0 0 0 1.764.504zm10.421.63c0 .28-.098.518-.294.714a.972.972 0 0 1-.714.294.972.972 0 0 1-.714-.294 1.011 1.011 0 0 1-.273-.714V6.468c0-.28.098-.518.294-.714a.972.972 0 0 1 .714-.294c.28 0 .511.098.693.294a.972.972 0 0 1 .294.714v13.524zm5.312 0c0 .28-.098.518-.294.714a.972.972 0 0 1-.714.294.972.972 0 0 1-.714-.294 1.011 1.011 0 0 1-.273-.714V6.468c0-.28.098-.518.294-.714a.972.972 0 0 1 .714-.294c.28 0 .51.098.693.294a.972.972 0 0 1 .294.714v13.524zm12.603-4.914a.933.933 0 0 1-.315.651 1.031 1.031 0 0 1-.693.252h-7.392c.098 1.022.483 1.841 1.155 2.457.686.616 1.519.924 2.499.924.672 0 1.218-.098 1.638-.294.42-.196.791-.448 1.113-.756.21-.126.413-.189.609-.189.238 0 .434.084.588.252a.806.806 0 0 1 .252.588c0 .294-.14.56-.42.798-.406.406-.945.749-1.617 1.029-.672.28-1.358.42-2.058.42-1.134 0-2.135-.238-3.003-.714a5.064 5.064 0 0 1-1.995-1.995c-.462-.854-.693-1.82-.693-2.898 0-1.176.238-2.205.714-3.087.49-.896 1.127-1.582 1.911-2.058a4.917 4.917 0 0 1 2.562-.714 4.88 4.88 0 0 1 2.52.693 5.264 5.264 0 0 1 1.89 1.911c.476.812.721 1.722.735 2.73zm-5.145-3.486c-.784 0-1.463.224-2.037.672-.574.434-.952 1.113-1.134 2.037h6.195v-.168c-.07-.742-.406-1.351-1.008-1.827a3.115 3.115 0 0 0-2.016-.714zm10.444.357v6.258c0 .7.315 1.05.945 1.05.098 0 .23-.021.399-.063a1.35 1.35 0 0 1 .399-.084c.182 0 .336.077.462.231.126.154.189.35.189.588 0 .294-.168.546-.504.756-.336.21-.714.315-1.134.315-.462 0-.89-.049-1.281-.147-.378-.098-.721-.343-1.03-.735-.293-.406-.44-1.015-.44-1.827v-6.342h-1.218a.954.954 0 0 1-.672-.252.954.954 0 0 1-.252-.672c0-.266.084-.483.252-.651a.954.954 0 0 1 .672-.252h1.218V8.358c0-.28.09-.518.273-.714a.997.997 0 0 1 .735-.294c.28 0 .51.098.693.294a.972.972 0 0 1 .294.714v1.764h1.743c.266 0 .483.091.65.273a.846.846 0 0 1 .274.651.846.846 0 0 1-.273.651.881.881 0 0 1-.651.252h-1.743z"/><path id="c" d="M1-2a1 1 0 0 0 0 2v-2zm25 2a1 1 0 1 0 0-2v2zM1 0h25v-2H1v2z"/></defs></svg>