<svg width="148" height="117" viewBox="0 0 148 117" xmlns="http://www.w3.org/2000/svg" xmlns:xlink="http://www.w3.org/1999/xlink"><title>image-secure</title><desc>Created using Figma</desc><use xlink:href="#a" transform="translate(9 14)" fill="#B0C4DE" opacity=".7"/><use xlink:href="#b" transform="translate(19 23)" fill="#B0C4DE" opacity=".7"/><g opacity=".7" transform="translate(-1330 -1897)"><use xlink:href="#c" transform="translate(1330 1994)" fill="#FFF"/><mask id="d"><use xlink:href="#c" fill="#fff" transform="translate(1330 1994)"/></mask><g mask="url(#d)"><use xlink:href="#e" transform="translate(1330 1994)" fill="#B0C4DE"/></g></g><use xlink:href="#f" transform="translate(62 108)" fill="#B0C4DE" opacity=".7"/><use xlink:href="#g" transform="translate(63 11.88)" fill="#B0C4DE" opacity=".7"/><use xlink:href="#h" transform="translate(53 1)" fill="#B0C4DE" opacity=".7"/><g opacity=".7" transform="translate(-1330 -1897)"><use xlink:href="#i" transform="translate(1369 1936)" fill="#00D68F" fill-opacity=".2"/><mask id="j"><use xlink:href="#i" fill="#fff" transform="translate(1369 1936)"/></mask><g mask="url(#j)"><use xlink:href="#k" transform="translate(1369 1936)" fill="#B0C4DE"/></g></g><defs><path id="a" d="M129 10v73h2V10h-2zM1 83V10h-2v73h2zM98 1h22v-2H98v2zM10 1h24v-2H10v2zm-9 9a9 9 0 0 1 9-9v-2C3.925-1-1 3.925-1 10h2zm130 0c0-6.075-4.925-11-11-11v2a9 9 0 0 1 9 9h2z"/><path id="b" d="M109 0h1v-1h-1v1zm-1 66a1 1 0 0 0 2 0h-2zM-1 66a1 1 0 1 0 2 0h-2zM0 0v-1h-1v1h1zm88-1a1 1 0 1 0 0 2v-2zM24 1a1 1 0 1 0 0-2v2zm84-1v66h2V0h-2zM1 66V0h-2v66h2zM88 1h21v-2H88v2zM0 1h24v-2H0v2z"/><path id="c" d="M0 0h148c0 11.046-8.954 20-20 20H20C8.954 20 0 11.046 0 0z"/><path id="e" d="M0-2a2 2 0 1 0 0 4v-4zm0 4h148v-4H0v4zm128 16H20v4h108v-4zm18-18c0 9.941-8.059 18-18 18v4c12.15 0 22-9.85 22-22h-4zM20 18C10.059 18 2 9.941 2 0h-4c0 12.15 9.85 22 22 22v-4z"/><path id="f" d="M1-2a1 1 0 0 0 0 2v-2zm24 2a1 1 0 1 0 0-2v2zM1 0h24v-2H1v2z"/><path id="g" d="M20.913 10.957v16.16h2v-16.16h-2zM1 27.117v-16.16h-2v16.16h2zM10.957-1C4.353-1-1 4.353-1 10.957h2C1 5.457 5.458 1 10.957 1v-2zm0 2c5.498 0 9.956 4.458 9.956 9.957h2C22.913 4.353 17.56-1 10.956-1v2z"/><path id="h" d="M41 21v17h2V21h-2zM1 38V21h-2v17h2zM21-1C8.85-1-1 8.85-1 21h2C1 9.954 9.954 1 21 1v-2zm0 2c11.046 0 20 8.954 20 20h2C43 8.85 33.15-1 21-1v2z"/><path id="i" fill-rule="evenodd" d="M6 0a6 6 0 0 0-6 6v34a6 6 0 0 0 6 6h58a6 6 0 0 0 6-6V6a6 6 0 0 0-6-6H6zm36 18a7 7 0 0 1-4 6.326V32a3 3 0 1 1-6 0v-7.674A7 7 0 1 1 42 18z"/><path id="k" d="M38 24.326l-.858-1.806-1.142.542v1.264h2zm-6 0h2v-1.264l-1.142-.542L32 24.326zM2 6a4 4 0 0 1 4-4v-4a8 8 0 0 0-8 8h4zm0 34V6h-4v34h4zm4 4a4 4 0 0 1-4-4h-4a8 8 0 0 0 8 8v-4zm58 0H6v4h58v-4zm4-4a4 4 0 0 1-4 4v4a8 8 0 0 0 8-8h-4zm0-34v34h4V6h-4zm-4-4a4 4 0 0 1 4 4h4a8 8 0 0 0-8-8v4zM6 2h58v-4H6v4zm32.858 24.133A9 9 0 0 0 44 18h-4a5 5 0 0 1-2.858 4.52l1.716 3.613zM40 32v-7.674h-4V32h4zm-5 5a5 5 0 0 0 5-5h-4a1 1 0 0 1-1 1v4zm-5-5a5 5 0 0 0 5 5v-4a1 1 0 0 1-1-1h-4zm0-7.674V32h4v-7.674h-4zM26 18a9 9 0 0 0 5.142 8.133l1.716-3.613A5 5 0 0 1 30 18h-4zm9-9a9 9 0 0 0-9 9h4a5 5 0 0 1 5-5V9zm9 9a9 9 0 0 0-9-9v4a5 5 0 0 1 5 5h4z"/></defs></svg>