<svg width="1280" height="161" viewBox="0 0 1280 161" xmlns="http://www.w3.org/2000/svg" xmlns:xlink="http://www.w3.org/1999/xlink"><title>Group</title><desc>Created using Figma</desc><use xlink:href="#a" transform="translate(0 18.325)" fill="#FFF" opacity=".07"/><use xlink:href="#b" fill="#FFF" opacity=".03"/><defs><path id="a" d="M248.5 24.175C142-7.325 48.833-4.158 0 11.675v131h1280v-119c-35.5 3.5-79 31.262-155.5 34.5-94.5 4-169.5-46.5-286-34-106.915 11.472-169 52.5-298.5 55.5s-173.514-20.602-291.5-55.5z"/><path id="b" d="M201 53C124.567 69.86 63.5 62 0 48v113h1280V74c-67.5 4-148.5-26.5-223-32-94.328-6.964-155.616 32.5-286 32.5C647 74.5 549 0 430 0S269 38 201 53z"/></defs></svg>