<svg width="1280" height="750" viewBox="0 0 1280 750" xmlns="http://www.w3.org/2000/svg" xmlns:xlink="http://www.w3.org/1999/xlink"><title>bg-first-screen</title><desc>Created using Figma</desc><use xlink:href="#a" fill="url(#b)"/><use xlink:href="#c" transform="translate(0 607.325)" fill="#FFF" opacity=".07"/><use xlink:href="#d" transform="translate(0 589)" fill="#FFF" opacity=".03"/><defs><linearGradient id="b" x2="1" gradientUnits="userSpaceOnUse" gradientTransform="matrix(1465.5 563 -920.402 2188.43 460.201 -907.215)"><stop offset=".022" stop-color="#041144"/><stop offset="1" stop-color="#339BE6"/></linearGradient><path id="a" d="M0 0h1280v750H0V0z"/><path id="c" d="M248.5 24.175C142-7.325 48.833-4.158 0 11.675v131h1280v-119c-35.5 3.5-79 31.262-155.5 34.5-94.5 4-169.5-46.5-286-34-106.915 11.472-169 52.5-298.5 55.5s-173.514-20.602-291.5-55.5z"/><path id="d" d="M201 53C124.567 69.86 63.5 62 0 48v113h1280V74c-67.5 4-148.5-26.5-223-32-94.328-6.964-155.616 32.5-286 32.5C647 74.5 549 0 430 0S269 38 201 53z"/></defs></svg>