<svg width="221" height="176" viewBox="0 0 221 176" xmlns="http://www.w3.org/2000/svg" xmlns:xlink="http://www.w3.org/1999/xlink"><title>Group</title><desc>Created using Figma</desc><g transform="translate(-772 -1399)"><mask id="b"><path fill="#fff" transform="matrix(-1 0 0 1 930 1401)" d="M-2-2h17v17H-2z"/><use xlink:href="#a" transform="matrix(-1 0 0 1 930 1401)"/></mask><g mask="url(#b)"><use xlink:href="#c" transform="matrix(-1 0 0 1 930 1401)" fill="#B0C4DE"/></g></g><g transform="translate(-772 -1399)"><mask id="d"><path fill="#fff" transform="matrix(-1 0 0 1 988 1449)" d="M-2-2h17v17H-2z"/><use xlink:href="#a" transform="matrix(-1 0 0 1 988 1449)"/></mask><g mask="url(#d)"><use xlink:href="#c" transform="matrix(-1 0 0 1 988 1449)" fill="#B0C4DE"/></g></g><g transform="translate(-772 -1399)"><mask id="e"><path fill="#fff" transform="matrix(-1 0 0 1 991 1525)" d="M-2-2h17v17H-2z"/><use xlink:href="#a" transform="matrix(-1 0 0 1 991 1525)"/></mask><g mask="url(#e)"><use xlink:href="#c" transform="matrix(-1 0 0 1 991 1525)" fill="#B0C4DE"/></g></g><use xlink:href="#f" transform="translate(-2 139)" fill="#0C2267"/><use xlink:href="#g" transform="translate(108 39.32)" fill="#B0C4DE"/><g transform="translate(-772 -1399)"><mask id="i"><path fill="#fff" transform="translate(888 1446)" d="M-2-2h66v66H-2z"/><use xlink:href="#h" transform="translate(888 1446)"/></mask><g mask="url(#i)"><use xlink:href="#j" transform="translate(888 1446)" fill="#B0C4DE"/></g></g><use xlink:href="#k" transform="translate(10 26)" fill="#B0C4DE"/><use xlink:href="#l" transform="translate(20 35)" fill="#B0C4DE"/><use xlink:href="#m" transform="translate(1 109)" fill="#B0C4DE"/><use xlink:href="#n" transform="translate(63 120)" fill="#B0C4DE"/><use xlink:href="#o" transform="translate(141.343 62.57)" fill="#B0C4DE"/><use xlink:href="#p" transform="translate(136.2 57)" fill="#B0C4DE"/><g transform="translate(-772 -1399)"><use xlink:href="#q" transform="translate(901 1475.45)" fill="#00D68F" fill-opacity=".2"/><mask id="r"><use xlink:href="#q" fill="#fff" transform="translate(901 1475.45)"/></mask><g mask="url(#r)"><use xlink:href="#s" transform="translate(901 1475.45)" fill="#B0C4DE"/></g></g><use xlink:href="#t" transform="rotate(90 67.75 83.75)" fill="#B0C4DE"/><g transform="translate(-772 -1399)"><use xlink:href="#u" transform="rotate(32.347 -2112.667 2388.265)" fill="#B0C4DE"/></g><g transform="translate(-772 -1399)"><use xlink:href="#v" transform="rotate(-12.529 7138.535 -3616.61)" fill="#B0C4DE"/></g><defs><path id="a" d="M13 6.5a6.5 6.5 0 1 1-13 0 6.5 6.5 0 0 1 13 0z"/><path id="c" d="M11 6.5A4.5 4.5 0 0 1 6.5 11v4A8.5 8.5 0 0 0 15 6.5h-4zM6.5 11A4.5 4.5 0 0 1 2 6.5h-4A8.5 8.5 0 0 0 6.5 15v-4zM2 6.5A4.5 4.5 0 0 1 6.5 2v-4A8.5 8.5 0 0 0-2 6.5h4zM6.5 2A4.5 4.5 0 0 1 11 6.5h4A8.5 8.5 0 0 0 6.5-2v4z"/><path id="f" d="M25.344 10.8c.288 0 .528.108.72.324a.963.963 0 0 1 .324.756v23.04c0 .312-.108.576-.324.792a1.15 1.15 0 0 1-.792.288c-.336 0-.612-.096-.828-.288a1.077 1.077 0 0 1-.324-.792v-19.8l-8.46 12.816c-.24.312-.516.456-.828.432h-.072c-.288 0-.552-.144-.792-.432l-8.46-12.888V34.92c0 .312-.108.576-.324.792-.192.192-.444.288-.756.288s-.564-.096-.756-.288a1.15 1.15 0 0 1-.288-.792V11.88c0-.288.096-.54.288-.756.216-.216.48-.324.792-.324.168 0 .348.048.54.144.192.072.336.18.432.324l9.432 14.148 9.504-14.148c.264-.36.588-.516.972-.468zm30.281 12.6c0 2.472-.516 4.692-1.548 6.66s-2.46 3.516-4.284 4.644c-1.824 1.104-3.9 1.656-6.228 1.656s-4.404-.552-6.228-1.656c-1.824-1.128-3.252-2.676-4.284-4.644s-1.548-4.188-1.548-6.66c0-2.496.516-4.728 1.548-6.696s2.46-3.504 4.284-4.608c1.824-1.104 3.9-1.656 6.228-1.656s4.404.552 6.228 1.656c1.824 1.104 3.252 2.64 4.284 4.608 1.032 1.968 1.548 4.2 1.548 6.696zm-2.304 0c0-2.088-.42-3.948-1.26-5.58-.816-1.656-1.968-2.94-3.456-3.852-1.464-.912-3.144-1.368-5.04-1.368s-3.588.456-5.076 1.368c-1.464.912-2.616 2.196-3.456 3.852-.816 1.632-1.224 3.492-1.224 5.58s.408 3.96 1.224 5.616c.84 1.632 1.992 2.904 3.456 3.816 1.488.912 3.18 1.368 5.076 1.368 1.896 0 3.576-.456 5.04-1.368 1.488-.912 2.64-2.184 3.456-3.816.84-1.656 1.26-3.528 1.26-5.616zm25.835-12.6c.312 0 .552.096.72.288a.977.977 0 0 1 .288.72v23.04c0 .36-.108.648-.324.864a1.15 1.15 0 0 1-.792.288 1.27 1.27 0 0 1-.504-.108 1.37 1.37 0 0 1-.36-.252L62.74 14.832v20.196a.887.887 0 0 1-.324.684.934.934 0 0 1-.684.288.977.977 0 0 1-.72-.288.934.934 0 0 1-.288-.684V11.88c0-.336.096-.6.288-.792.216-.192.468-.288.756-.288.384 0 .672.132.864.396l15.516 20.916V11.808c0-.288.096-.528.288-.72a.977.977 0 0 1 .72-.288zm22.051 23.076c.312 0 .564.108.756.324.216.216.324.468.324.756a.963.963 0 0 1-.324.756c-.192.192-.444.288-.756.288H87.995a1.15 1.15 0 0 1-.792-.288 1.15 1.15 0 0 1-.288-.792V11.88c0-.312.096-.564.288-.756.216-.216.48-.324.792-.324h13.212c.312 0 .564.108.756.324a.963.963 0 0 1 .324.756.963.963 0 0 1-.324.756c-.192.192-.444.288-.756.288H89.183v9.036h10.404c.312 0 .564.108.756.324a.963.963 0 0 1 .324.756.963.963 0 0 1-.324.756c-.192.192-.444.288-.756.288H89.183v9.792h12.024zm24.565.18c.36.24.54.54.54.9 0 .12-.048.276-.144.468a1.07 1.07 0 0 1-.936.54c-.24 0-.444-.048-.612-.144-.672-.384-1.212-1.008-1.62-1.872-.408-.864-.612-2.244-.612-4.14 0-1.68-.468-2.856-1.404-3.528-.936-.696-2.052-1.044-3.348-1.044h-7.992v9.684c0 .312-.096.576-.288.792-.192.192-.444.288-.756.288a1.34 1.34 0 0 1-.864-.288c-.24-.216-.36-.48-.36-.792V11.88c0-.312.096-.564.288-.756.216-.216.48-.324.792-.324h9.72c1.368 0 2.592.3 3.672.9a6.257 6.257 0 0 1 2.52 2.412c.624 1.032.936 2.196.936 3.492 0 1.536-.408 2.892-1.224 4.068-.792 1.152-1.836 1.944-3.132 2.376 1.056.408 1.92 1.104 2.592 2.088.672.96 1.02 2.136 1.044 3.528.024 1.488.12 2.532.288 3.132.192.6.492 1.02.9 1.26zm-7.488-10.8a4.916 4.916 0 0 0 2.34-.828c.72-.48 1.296-1.128 1.728-1.944.432-.816.648-1.752.648-2.808 0-1.368-.468-2.496-1.404-3.384-.912-.912-2.112-1.368-3.6-1.368h-8.352v10.332h8.64zm35.322.144c0 2.472-.516 4.692-1.548 6.66s-2.46 3.516-4.284 4.644c-1.824 1.104-3.9 1.656-6.228 1.656s-4.404-.552-6.228-1.656c-1.824-1.128-3.252-2.676-4.284-4.644s-1.548-4.188-1.548-6.66c0-2.496.516-4.728 1.548-6.696s2.46-3.504 4.284-4.608c1.824-1.104 3.9-1.656 6.228-1.656s4.404.552 6.228 1.656c1.824 1.104 3.252 2.64 4.284 4.608 1.032 1.968 1.548 4.2 1.548 6.696zm-2.304 0c0-2.088-.42-3.948-1.26-5.58-.816-1.656-1.968-2.94-3.456-3.852-1.464-.912-3.144-1.368-5.04-1.368s-3.588.456-5.076 1.368c-1.464.912-2.616 2.196-3.456 3.852-.816 1.632-1.224 3.492-1.224 5.58s.408 3.96 1.224 5.616c.84 1.632 1.992 2.904 3.456 3.816 1.488.912 3.18 1.368 5.076 1.368 1.896 0 3.576-.456 5.04-1.368 1.488-.912 2.64-2.184 3.456-3.816.84-1.656 1.26-3.528 1.26-5.616z"/><path id="g" d="M34.127.992a1 1 0 1 0-.254-1.984l.254 1.984zm42.821 24.872a1 1 0 1 0-1.896.637l1.896-.637zM43.559-.998a1 1 0 1 0-.118 1.996l.118-1.996zm27.468 19.22a1 1 0 0 0 1.684-1.079l-1.684 1.079zm-.21 45.037a1 1 0 0 0-1.634-1.153l1.634 1.153zm2.849-8.987a1 1 0 1 0 1.823.821l-1.823-.821zM39 76.682c-20.987 0-38-17.013-38-38h-2c0 22.092 17.909 40 40 40v-2zm-38-38C1 19.347 15.442 3.383 34.127.992l-.254-1.984C14.203 1.525-1 18.328-1 38.682h2zm74.052-12.181c1.287 3.823 1.951 7.92 1.948 12.181h2c-.003-4.422-.72-8.838-2.052-12.818l-1.896.637zM43.441.998c11.127.66 21.39 7.545 27.586 17.224l1.684-1.079C66.231 7.022 55.431-.294 43.56-.998L43.441.998zm25.742 61.108C63.383 70.322 51.589 76.683 39 76.683v2c13.192 0 25.616-6.64 31.817-15.424l-1.634-1.153zM77 38.682c.006 5.591-1.172 10.801-3.334 15.59l1.823.821A40.292 40.292 0 0 0 79 38.683h-2z"/><path id="h" d="M62 31c0 17.12-13.88 31-31 31C13.88 62 0 48.12 0 31 0 13.88 13.88 0 31 0c17.12 0 31 13.88 31 31z"/><path id="j" d="M60 31c0 16.016-12.984 29-29 29v4c18.225 0 33-14.775 33-33h-4zM31 60C14.984 60 2 47.016 2 31h-4c0 18.225 14.775 33 33 33v-4zM2 31C2 14.984 14.984 2 31 2v-4C12.775-2-2 12.775-2 31h4zM31 2c16.016 0 29 12.984 29 29h4C64 12.775 49.225-2 31-2v4z"/><path id="k" d="M-1 79a1 1 0 1 0 2 0h-2zM130 1a1 1 0 0 0 0-2v2zM1 79V10h-2v69h2zm9-78h120v-2H10v2zm-9 9a9 9 0 0 1 9-9v-2C3.925-1-1 3.925-1 10h2z"/><path id="l" d="M-1 66a1 1 0 1 0 2 0h-2zM0 0v-1h-1v1h1zm113 1a1 1 0 0 0 0-2v2zM1 66V0h-2v66h2zM0 1h113v-2H0v2z"/><path id="m" d="M0 0v-1a1 1 0 0 0-1 1h1zm108 1a1 1 0 0 0 0-2v2zm22.5 20a1 1 0 0 0 0-2v2zM0 1h108v-2H0v2zm130.5 18H20v2h110.5v-2zM-1 0c0 11.598 9.402 21 21 21v-2C9.507 19 1 10.493 1 0h-2z"/><path id="n" d="M1-2a1 1 0 0 0 0 2v-2zm24 2a1 1 0 1 0 0-2v2zM1 0h24v-2H1v2z"/><path id="o" d="M10.27 5.635v8.246h2V5.635h-2zM1 13.88V5.635h-2v8.246h2zM5.635-1A6.635 6.635 0 0 0-1 5.635h2A4.635 4.635 0 0 1 5.635 1v-2zm0 2a4.635 4.635 0 0 1 4.635 4.635h2A6.635 6.635 0 0 0 5.635-1v2z"/><path id="p" d="M20.6 10.8v8.652h2V10.8h-2zM1 19.452V10.8h-2v8.652h2zM10.8-1C4.283-1-1 4.283-1 10.8h2C1 5.388 5.388 1 10.8 1v-2zm0 2c5.412 0 9.8 4.388 9.8 9.8h2C22.6 4.283 17.317-1 10.8-1v2z"/><path id="q" fill-rule="evenodd" d="M6 0a6 6 0 0 0-6 6v11.548a6 6 0 0 0 6 6h24a6 6 0 0 0 6-6V6a6 6 0 0 0-6-6H6zm15.6 9.214c0 1.43-.84 2.664-2.057 3.239v3.92a1.543 1.543 0 1 1-3.086 0v-3.92A3.583 3.583 0 0 1 14.4 9.214 3.592 3.592 0 0 1 18 5.631c1.988 0 3.6 1.604 3.6 3.583z"/><path id="s" d="M19.543 12.453l-.855-1.808-1.145.541v1.267h2zm-3.086 0h2v-1.267l-1.145-.541-.855 1.808zM2 6a4 4 0 0 1 4-4v-4a8 8 0 0 0-8 8h4zm0 11.548V6h-4v11.548h4zm4 4a4 4 0 0 1-4-4h-4a8 8 0 0 0 8 8v-4zm24 0H6v4h24v-4zm4-4a4 4 0 0 1-4 4v4a8 8 0 0 0 8-8h-4zM34 6v11.548h4V6h-4zm-4-4a4 4 0 0 1 4 4h4a8 8 0 0 0-8-8v4zM6 2h24v-4H6v4zm14.398 12.26A5.582 5.582 0 0 0 23.6 9.215h-4c0 .624-.365 1.172-.912 1.43l1.71 3.617zm1.145 2.114v-3.921h-4v3.92h4zM18 19.917a3.543 3.543 0 0 0 3.543-3.543h-4c0-.253.205-.457.457-.457v4zm-3.543-3.543A3.543 3.543 0 0 0 18 19.917v-4c.252 0 .457.204.457.457h-4zm0-3.921v3.92h4v-3.92h-4zM12.4 9.214a5.582 5.582 0 0 0 3.202 5.047l1.71-3.616a1.582 1.582 0 0 1-.912-1.43h-4zM18 3.631c-3.084 0-5.6 2.491-5.6 5.583h4c0-.865.708-1.583 1.6-1.583v-4zm5.6 5.583c0-3.092-2.516-5.583-5.6-5.583v4c.892 0 1.6.718 1.6 1.583h4z"/><path id="t" d="M0 1h23.5v-2H0v2z"/><path id="u" d="M-.146.99L37.73 6.592l.292-1.978L.146-.99-.146.989z"/><path id="v" d="M.103 3.11L20.549.995l-.206-1.99L-.103 1.121.103 3.11z"/></defs></svg>