<svg width="40" height="30" viewBox="0 0 40 30" xmlns="http://www.w3.org/2000/svg" xmlns:xlink="http://www.w3.org/1999/xlink"><title>Slice</title><desc>Created using Figma</desc><use xlink:href="#b" transform="translate(-63 -410)" fill="#FFF" filter="url(#a)"/><use xlink:href="#c" transform="translate(-63)" fill="url(#d)" opacity=".9"/><g transform="translate(-11622 -710)"><mask id="f"><use xlink:href="#c" transform="translate(11559 710)" fill="url(#e)" opacity=".5"/></mask><g mask="url(#f)"><use xlink:href="#g" transform="translate(11534 701)" fill="url(#h)"/></g></g><defs><filter id="a" filterUnits="userSpaceOnUse" x="11551" y="298" width="356" height="456" color-interpolation-filters="sRGB"><feFlood flood-opacity="0" result="BackgroundImageFix"/><feColorMatrix in="SourceAlpha" values="0 0 0 0 0 0 0 0 0 0 0 0 0 0 0 0 0 0 255 0"/><feOffset dy="6"/><feGaussianBlur stdDeviation="4"/><feColorMatrix values="0 0 0 0 0.0172247 0 0 0 0 0.0670818 0 0 0 0 0.268559 0 0 0 0.1 0"/><feBlend in2="BackgroundImageFix" result="effect1_dropShadow"/><feBlend in="SourceGraphic" in2="effect1_dropShadow" result="shape"/></filter><linearGradient id="d" x2="1" gradientUnits="userSpaceOnUse" gradientTransform="matrix(0 30 -340 0 340 0)"><stop offset="0" stop-color="#00E99C"/><stop offset="1" stop-color="#00D68F"/></linearGradient><linearGradient id="e" x2="1" gradientUnits="userSpaceOnUse" gradientTransform="matrix(0 30 -340 0 340 0)"><stop offset="0" stop-color="#00E99C"/><stop offset="1" stop-color="#00D68F"/></linearGradient><linearGradient id="h" x2="1" gradientUnits="userSpaceOnUse" gradientTransform="matrix(0 49.4974 -369.539 0 369.539 0)"><stop offset="0" stop-color="#00E99C"/><stop offset="1" stop-color="#00C584"/></linearGradient><path id="b" d="M0 4a4 4 0 0 1 4-4h332a4 4 0 0 1 4 4v432a4 4 0 0 1-4 4H4a4 4 0 0 1-4-4V4z"/><path id="c" d="M0 0h340v26a4 4 0 0 1-4 4H4a4 4 0 0 1-4-4V0z"/><path id="g" fill-rule="evenodd" d="M42.427 0l7.071 7.071L7.071 49.497 0 42.427 42.427 0zm40 0l7.071 7.071-42.427 42.426L40 42.427 82.427 0zm47.077 7.071L122.433 0 80.006 42.426l7.071 7.071 42.427-42.426zM162.438 0l7.072 7.071-42.427 42.426-7.071-7.07L162.438 0zm47.078 7.071L202.444 0l-42.426 42.426 7.071 7.071 42.427-42.426zM242.45 0l7.071 7.071-42.426 42.426-7.072-7.07L242.45 0zm47.077 7.071L282.456 0l-42.427 42.426 7.072 7.071 42.426-42.426zM322.462 0l7.071 7.071-42.427 42.426-7.071-7.07L322.462 0zm47.077 7.071L362.468 0l-42.427 42.426 7.071 7.071 42.427-42.426z"/></defs></svg>