<svg width="20" height="20" viewBox="0 0 20 20" xmlns="http://www.w3.org/2000/svg" xmlns:xlink="http://www.w3.org/1999/xlink"><title>ic-qr-code</title><desc>Created using Figma</desc><use xlink:href="#a" fill="#339BE6"/><defs><path id="a" d="M5 1v4H1V1h4zm0-1H1C.4 0 0 .4 0 1v4c0 .6.4 1 1 1h4c.6 0 1-.4 1-1V1c0-.6-.4-1-1-1zm0 15v4H1v-4h4zm0-1H1c-.6 0-1 .4-1 1v4c0 .6.4 1 1 1h4c.6 0 1-.4 1-1v-4c0-.6-.4-1-1-1zM19 1v4h-4V1h4zm0-1h-4c-.6 0-1 .4-1 1v4c0 .6.4 1 1 1h4c.6 0 1-.4 1-1V1c0-.6-.4-1-1-1zM8 6H7v9h1V6zM3 2H2v2h1V2zm1 15H2v1h2v-1zM17 2v1h-1v1h2V2h-1zm-6 4h-1v4h1V6zm1 10v1h-2v-3H9v3H7v1h6v-2h-1zm2-6h-1v4h1v-4zm3 1h-1v2h1v-2zm-1 4c-.5 0-1 .5-1 1v3h-3v1h5v-1h-1v-3h3v1h-2v1h2v2h1v-5h-4zM11 3V2h-1v1H8V1H7v3h5v2h1V3h-2zm-1 16H7v1h3v-1zm9-12v1h-7v1h7v4h1V7h-1zM3 10V8h2V7H0v1h2v5h1v-2h3v-1H3zm8 1H9v1h2v-1z"/></defs></svg>