<svg version="1" xmlns="http://www.w3.org/2000/svg" width="933.333" height="933.333" viewBox="0 0 700.000000 700.000000"><path d="M0 350v350h700V0H0v350zm316.8-128.7c7.5 8 6.7 28.2-1.3 34.5l-2.8 2.2H47.2l-3-2.5c-7.7-6.5-8.3-26.5-1-34.2l2.1-2.3h269.4l2.1 2.3zm84.7 29.8c3.4 1.3 7 3.6 9.1 5.8 1.8 2 18.7 27.2 37.5 56.1 18.8 28.9 37.9 58.3 42.6 65.4l8.4 12.8 44.4-66.2c24.5-36.5 45.5-67.4 46.7-68.8 3.4-3.7 11.6-7.2 16.8-7.2 9.3 0 20.2 8 22.8 16.9.9 2.8 1.2 35.2 1.2 122.2v118.4l-2.4 5c-4.3 9.4-12.9 14.1-23.9 13.3-6.8-.6-11.6-2.6-16-6.7-6.6-6-6.1-.3-6.7-91.9l-.5-83.4-32.5 49.8c-33.1 50.5-36.7 55.3-44.3 58.1-8.4 3.1-17.1.6-24.3-6.9-2.3-2.4-18.2-26.7-35.5-54.1l-31.4-49.8-.5 84.3c-.6 94.3 0 88-7.8 95-5.2 4.7-10 6.2-17.5 5.5-8.2-.7-13.2-4.3-17.2-12.2l-3-6-.3-115c-.2-69.5.1-117.4.7-121.1 2.6-16.6 17.7-25.3 33.6-19.3zM63.3 306.4c4.7 2 8.4 6.4 11 13.2 1.3 3.2 12.6 35.2 25.2 71.1 12.7 35.8 23.3 64.9 23.7 64.5.3-.4 9.3-23.4 19.8-51.2 10.6-27.8 20.5-52.3 21.9-54.5 1.5-2.2 4.4-4.8 6.5-5.8 4.7-2.2 13.3-2.4 17.3-.4 6.6 3.5 5.3.7 37.8 82.9 6.1 15.3 11.2 27.8 11.5 27.8.3 0 11.3-30.9 24.5-68.7 15.9-45.3 25-69.9 26.8-72.5 1.6-2.2 4.6-4.8 7-5.9 14.5-6.5 30.3 4.6 28.4 20-.5 3.4-59.1 171-65.5 187.1-1.5 3.7-5.7 7.9-9.7 9.6-4.4 1.8-12.6 1.8-16.8 0-4-1.7-9-6.7-11-10.9-.8-1.7-10.6-27.1-21.7-56.2-11.1-29.2-20.5-53.6-20.9-54.3-.4-.7-8.9 21.9-20 53.5-10.7 30.1-20 56.1-20.8 57.8-3.8 7.6-10.2 11.5-18.7 11.5-6.9-.1-12.9-2.9-15.9-7.7-1.4-2.1-17.3-45-35.3-95.3-28.4-79.2-32.8-92.2-32.8-97 .1-5.8 2.6-12.1 6.1-15.2 5-4.5 15.2-6.1 21.6-3.4z"/></svg>